<!-- Created with Inkscape (http://www.inkscape.org/) -->
<!-- Created with Inkscape (http://www.inkscape.org/) -->

<svg
  width="20"
  height="20"
  viewBox="0 0 255.99999 256"
  version="1.1"
  xml:space="preserve"
  xmlns="http://www.w3.org/2000/svg"
  fill="currentColor"
  preserveAspectRatio="xMidYMid meet"
  style="display:block"><defs /><g
     transform="translate(-108.14447,-7681.3345)"><path
       
       style="display:inline;fill-rule:evenodd;stroke-width:0.149359"
       d="m 236.14458,7681.3352 c -33.94745,0 -66.5053,13.4857 -90.50977,37.4902 -24.00446,24.0045 -37.49023,56.5623 -37.49023,90.5098 0,33.9472 13.48577,66.5053 37.49023,90.5097 24.00447,24.0043 56.56232,37.4903 90.50977,37.4903 53.16653,-0.1452 100.70956,-33.1416 119.44336,-82.8985 0.11693,-0.3101 0.23306,-0.6207 0.34766,-0.9316 5.31925,-14.1244 8.09807,-29.0776 8.20898,-44.1699 0,-33.9475 -13.48577,-66.5053 -37.49023,-90.5098 -24.00447,-24.0045 -56.56233,-37.4902 -90.50977,-37.4902 z m -74.13281,99.6386 a 28.354978,28.360589 0 0 1 26.04492,17.1973 h 22.34375 a 28.354978,28.360589 0 0 1 25.74414,-17.1973 28.354978,28.360589 0 0 1 26.04688,17.1973 h 22.4121 a 28.354978,28.360589 0 0 1 25.74415,-17.1973 28.354978,28.360589 0 0 1 28.35546,28.3614 28.354978,28.360589 0 0 1 -28.35546,28.3593 28.354978,28.360589 0 0 1 -25.74415,-17.1953 h -22.71484 a 28.354978,28.360589 0 0 1 -25.74414,17.1953 28.354978,28.360589 0 0 1 -25.74414,-17.1953 h -22.64453 a 28.354978,28.360589 0 0 1 -25.74414,17.1953 28.354978,28.360589 0 0 1 -28.35547,-28.3593 28.354978,28.360589 0 0 1 28.35547,-28.3614 z" /></g></svg>
