<svg
   viewBox="0 0 11460.194 2047.5393"
   version="1.1"
  xmlns="http://www.w3.org/2000/svg"><defs><path-effect
    effect="fillet_chamfer"
    is_visible="true"
       lpeversion="1"
       nodesatellites_param="F,0,0,1,0,19.84375,0,1 @ F,0,0,1,0,19.84375,0,1 @ F,0,0,1,0,19.84375,0,1 @ F,0,0,1,0,19.84375,0,1 @ F,0,0,1,0,19.84375,0,1 @ F,0,0,1,0,19.84375,0,1 @ F,0,0,1,0,19.84375,0,1 @ F,0,0,1,0,19.84375,0,1 | F,0,0,1,0,19.84375,0,1 @ F,0,0,1,0,19.84375,0,1 @ F,0,0,1,0,19.84375,0,1 @ F,0,0,1,0,19.84375,0,1 @ F,0,0,1,0,19.84375,0,1 @ F,0,0,1,0,19.84375,0,1 @ F,0,0,1,0,19.84375,0,1 @ F,0,0,1,0,19.84375,0,1 @ F,0,0,1,0,19.84375,0,1 @ F,0,0,1,0,19.84375,0,1 @ F,0,0,1,0,19.84375,0,1 @ F,0,0,1,0,19.84375,0,1 @ F,0,0,1,0,19.84375,0,1 @ F,0,0,1,0,19.84375,0,1 @ F,0,0,1,0,19.84375,0,1 @ F,0,0,1,0,19.84375,0,1"
       radius="75"
       unit="px"
       method="auto"
       mode="F"
       chamfer_steps="1"
       flexible="false"
       use_knot_distance="true"
       apply_no_radius="true"
       apply_with_radius="true"
       only_selected="false"
       hide_knots="false" /></defs><g
     transform="translate(-14306.239,-196.08785)"><path
      
       style="fill:currentColor;fill-opacity:1;fill-rule:evenodd;stroke-width:1.19487"
       d="M 1004.1575,0.1920263 C 746.36623,5.1825245 499.90397,107.27053 314.08921,286.02767 c -7.89788,7.5979 -20.46364,20.16366 -28.06154,28.06154 C 107.27053,499.90397 5.1825245,746.36623 0.19202631,1004.1575 c -0.21211647,10.9572 -0.21211647,28.7278 -10e-9,39.685 4.9904982,257.7913 107.0785037,504.2535 285.8356437,690.0683 7.5979,7.8979 20.16366,20.4636 28.06154,28.0615 185.81476,178.7572 432.27702,280.8452 690.06829,285.8357 10.9572,0.2121 28.7278,0.2121 39.685,0 257.7913,-4.9905 504.2535,-107.0785 690.0683,-285.8357 7.8979,-7.5979 20.4636,-20.1636 28.0615,-28.0615 178.7572,-185.8148 280.8452,-432.277 285.8357,-690.0683 0.2121,-10.9572 0.2121,-28.7278 0,-39.685 -4.9905,-257.79127 -107.0785,-504.25353 -285.8357,-690.06829 -7.5979,-7.89788 -20.1636,-20.46364 -28.0615,-28.06154 C 1548.096,107.27053 1301.6338,5.1825245 1043.8425,0.19202631 c -10.9572,-0.21211647 -28.7278,-0.21211647 -39.685,-10e-9 z M 450.74603,798.07118 c 60.35528,5.56385 116.02838,35.1013 154.48256,81.96106 6.95008,8.46927 20.78662,15.8701 31.74602,15.8701 h 180.98242 c 10.9594,0 24.79594,-7.40083 31.74602,-15.8701 38.45418,-46.85976 94.12728,-76.39722 154.48255,-81.96106 10.9097,-1.0057 28.7191,-1.0057 39.6288,10e-6 60.3553,5.56384 116.0284,35.10129 154.4825,81.96105 6.9501,8.46927 20.7866,15.8701 31.7461,15.8701 h 181.543 c 10.9594,0 24.7959,-7.40083 31.746,-15.8701 38.4541,-46.85976 94.1272,-76.39721 154.4825,-81.96105 10.9097,-1.00571 28.7184,-1.04692 39.6336,-0.10201 109.4702,9.47661 196.6957,96.71976 206.1691,206.21162 0.9444,10.9152 0.9444,28.7232 0,39.6384 -9.4734,109.4919 -96.6989,196.735 -206.1691,206.2117 -10.9152,0.9449 -28.7239,0.9037 -39.6336,-0.1021 -60.3553,-5.5638 -116.0284,-35.1012 -154.4825,-81.961 -6.9501,-8.4693 -20.7866,-15.8701 -31.746,-15.8701 h -181.543 c -10.9595,0 -24.796,7.4008 -31.7461,15.8701 -38.4541,46.8598 -94.1272,76.3972 -154.4825,81.961 -10.9097,1.0058 -28.7191,1.0058 -39.6288,0 -60.35527,-5.5638 -116.02837,-35.1012 -154.48255,-81.961 -6.95008,-8.4693 -20.78662,-15.8701 -31.74602,-15.8701 H 636.97461 c -10.9594,0 -24.79594,7.4008 -31.74602,15.8701 -38.45418,46.8598 -94.12728,76.3972 -154.48256,81.961 -10.90966,1.0058 -28.71841,1.0469 -39.63358,0.1019 -109.4694,-9.4775 -196.69379,-96.7204 -206.16712,-206.2115 -0.9444,-10.9152 -0.9444,-28.7232 0,-39.6384 9.47335,-109.49113 96.69774,-196.73395 206.16712,-206.21145 10.91517,-0.945 28.72392,-0.90387 39.63358,0.10183 z"
       transform="translate(14306.205,196.05491)" /><path
       style="font-size:1733.33px;font-family:'Arcticons Sans';-inkscape-font-specification:'Arcticons Sans';white-space:pre;fill:currentColor"
       d="m 6253.6097,1040.2683 q 0,147.333 -72.7999,273.8661 -72.7998,124.7998 -199.3329,199.333 -124.7998,72.7998 -273.8662,72.7998 -149.0663,0 -273.8661,-72.7998 -124.7997,-74.5332 -199.3329,-199.333 -72.7999,-124.7997 -72.7999,-273.8661 0,-149.06638 72.7999,-273.86614 74.5332,-124.79975 199.3329,-197.59961 124.7998,-74.53319 273.8661,-74.53319 149.0664,0 273.8662,74.53319 126.5331,72.79986 199.3329,199.33294 72.7999,124.79976 72.7999,272.13281 z m -173.333,0 q 0,-102.26647 -50.2666,-187.19964 -50.2666,-84.93317 -135.1997,-135.19974 -84.9332,-50.26656 -187.1997,-50.26656 -100.5331,0 -187.1996,50.26656 -84.9332,50.26657 -135.1997,136.93307 -50.2666,84.93317 -50.2666,185.46631 0,100.5331 50.2666,187.1996 50.2665,84.9332 135.1997,135.1998 86.6665,50.2665 187.1996,50.2665 102.2665,0 187.1997,-50.2665 84.9331,-50.2666 135.1997,-135.1998 50.2666,-84.9331 50.2666,-187.1996 z m -745.3319,0 q 0,36.3999 -25.9999,62.3999 -24.2667,24.2666 -60.6666,24.2666 -36.3999,0 -62.3999,-24.2666 -24.2666,-26 -24.2666,-62.3999 V 572.26921 q 0,-149.06638 72.7999,-273.86614 74.5332,-124.79975 199.3329,-197.59961 124.7998,-74.533189 273.8661,-74.533189 h 32.9333 q 301.5994,0 455.8658,204.532939 17.3333,22.53329 17.3333,51.99989 0,36.39993 -26,62.39988 -24.2666,24.26662 -60.6665,24.26662 -20.8,0 -39.8666,-8.66665 -17.3333,-10.39998 -29.4666,-25.99995 -50.2666,-65.86653 -126.5331,-100.53313 -74.5332,-34.6666 -190.6663,-34.6666 h -32.9333 q -100.5331,0 -187.1996,50.26657 -84.9332,50.26656 -135.1997,136.93306 -50.2666,84.93317 -50.2666,185.46631 z m 1247.9968,511.3323 q -12.1333,15.6 -31.2,26 -17.3333,8.6666 -38.1332,8.6666 -36.3999,0 -62.3999,-24.2666 -24.2666,-25.9999 -24.2666,-62.3999 0,-29.4666 17.3333,-51.9999 l 693.332,-918.66484 q 12.1333,-15.59997 29.4666,-24.26662 19.0666,-10.39998 39.8666,-10.39998 36.3999,0 60.6665,25.99995 26,24.26662 26,60.66655 0,29.46661 -17.3333,51.9999 z M 6444.2752,632.93576 q -17.3333,-22.53329 -17.3333,-51.9999 0,-36.39993 24.2666,-60.66655 26,-25.99995 62.3999,-25.99995 20.7999,0 38.1332,10.39998 19.0667,8.66665 31.2,24.26662 l 693.332,918.66484 q 17.3333,22.5333 17.3333,51.9999 0,36.4 -26,62.3999 -24.2666,24.2666 -60.6665,24.2666 -20.8,0 -39.8666,-8.6666 -17.3333,-10.4 -29.4666,-26 z m 1646.6645,866.66494 q 0,36.4 -26,62.3999 -24.2666,24.2666 -60.6665,24.2666 -36.3999,0 -62.3999,-24.2666 -24.2666,-25.9999 -24.2666,-62.3999 V 112.93677 q 0,-36.39993 24.2666,-60.666549 26,-25.99995 62.3999,-25.99995 36.3999,0 60.6665,25.99995 26,24.266619 26,60.666549 z m 606.6655,-86.6665 q 36.3999,0 60.6665,26 26,24.2666 26,60.6665 0,36.4 -26,62.3999 -24.2666,24.2666 -60.6665,24.2666 h -693.332 q -36.3999,0 -62.3999,-24.2666 -24.2666,-25.9999 -24.2666,-62.3999 0,-36.3999 24.2666,-60.6665 26,-26 62.3999,-26 z m 849.3332,-831.99834 q 0,-36.39993 24.2666,-60.66655 26,-25.99995 62.3999,-25.99995 36.3999,0 60.6666,25.99995 25.9999,24.26662 25.9999,60.66655 v 918.66484 q 0,36.4 -25.9999,62.3999 -24.2667,24.2666 -60.6666,24.2666 -36.3999,0 -62.3999,-24.2666 -24.2666,-25.9999 -24.2666,-62.3999 z m 173.333,346.66599 q 0,36.39993 -25.9999,62.39988 -24.2667,24.26657 -60.6666,24.26657 -36.3999,0 -62.3999,-24.26657 -24.2666,-25.99995 -24.2666,-62.39988 0,-69.3332 -36.3999,-128.26642 -34.6666,-60.66655 -95.3332,-95.33315 -58.9332,-36.39992 -128.2664,-36.39992 -71.0665,0 -131.733,34.66659 -58.9333,34.6666 -93.5999,95.33315 -34.6666,58.93322 -34.6666,129.99975 v 225.33285 q 0,71.0666 34.6666,131.7331 34.6666,58.9332 93.5999,93.5998 60.6665,34.6666 131.733,34.6666 69.3332,0 128.2664,-34.6666 60.6666,-36.3999 95.3332,-95.3331 36.3999,-60.6666 36.3999,-129.9998 0,-36.3999 24.2666,-60.6665 26,-26 62.3999,-26 36.3999,0 60.6666,26 25.9999,24.2666 25.9999,60.6665 0,117.8665 -58.9332,218.3996 -57.1999,98.7998 -157.733,157.733 -98.7998,57.1999 -216.6663,57.1999 -117.8664,0 -218.3995,-58.9332 -98.7999,-58.9332 -157.7331,-157.733 -57.1999,-98.7998 -57.1999,-216.6663 V 927.60185 q 0,-117.86644 57.1999,-216.66625 58.9332,-98.7998 157.7331,-157.73302 100.5331,-58.93322 218.3995,-58.93322 117.8665,0 216.6663,58.93322 100.5331,57.19989 157.733,157.73302 58.9332,98.79981 58.9332,216.66625 z M 9893.605,112.93677 q 0,-36.39993 24.2666,-60.666549 25.9999,-25.99995 62.3999,-25.99995 36.3995,0 60.6665,25.99995 26,24.266619 26,60.666549 V 1499.6007 q 0,36.4 -26,62.3999 -24.267,24.2666 -60.6665,24.2666 -36.4,0 -62.3999,-24.2666 -24.2666,-25.9999 -24.2666,-62.3999 z m 0,1039.99793 q 0,-36.3999 24.2666,-60.6665 25.9999,-26 62.3999,-26 36.3995,0 60.6665,26 26,24.2666 26,60.6665 0,69.3332 34.667,129.9998 36.399,58.9332 95.333,95.3331 60.666,34.6666 129.999,34.6666 69.334,0 128.267,-34.6666 60.666,-36.3999 95.333,-95.3331 36.4,-60.6666 36.4,-129.9998 V 927.60185 q 0,-69.3332 -36.4,-128.26642 -34.667,-60.66655 -95.333,-95.33315 -58.933,-36.39992 -128.267,-36.39992 -69.333,0 -129.999,36.39992 -58.934,34.6666 -95.333,95.33315 -34.667,58.93322 -34.667,128.26642 0,36.39993 -26,62.39988 -24.267,24.26657 -60.6665,24.26657 -36.4,0 -62.3999,-24.26657 -24.2666,-25.99995 -24.2666,-62.39988 0,-117.86644 57.1999,-216.66625 58.9331,-100.53313 157.7331,-157.73302 100.533,-58.93322 218.399,-58.93322 117.867,0 216.667,58.93322 100.533,57.19989 157.733,157.73302 58.933,98.79981 58.933,216.66625 v 225.33285 q 0,117.8665 -58.933,218.3996 -57.2,98.7998 -157.733,157.733 -98.8,57.1999 -216.667,57.1999 -117.866,0 -218.399,-57.1999 -98.8,-58.9332 -157.7331,-157.733 -57.1999,-100.5331 -57.1999,-218.3996 z m 1757.597,-559.86553 q 29.467,25.99995 29.467,65.86654 0,36.39992 -26,62.39987 -24.267,24.26662 -60.667,24.26662 -31.2,0 -57.2,-20.79996 -34.666,-31.19994 -83.2,-43.33325 -48.533,-13.86663 -143.866,-13.86663 h -78 q -58.933,0 -100.533,41.59991 -41.6,41.59992 -41.6,100.53314 0,58.93322 41.6,102.26647 41.6,41.59992 100.533,41.59992 h 156 q 86.666,0 157.733,43.33325 72.8,41.59995 114.4,114.39975 43.333,71.0666 43.333,157.733 0,86.6665 -43.333,159.4664 -41.6,72.7999 -114.4,116.1331 -71.067,41.5999 -157.733,41.5999 h -78 q -126.533,0 -202.8,-22.5333 -76.266,-24.2666 -138.666,-76.2665 -31.2,-25.9999 -31.2,-65.8665 0,-36.3999 24.267,-60.6666 26,-25.9999 62.399,-25.9999 32.934,0 55.467,20.7999 38.133,31.2 86.667,45.0666 48.533,12.1333 143.866,12.1333 h 78 q 58.933,0 100.533,-41.5999 41.6,-43.3332 41.6,-102.2665 0,-58.9332 -41.6,-100.5331 -41.6,-41.5999 -100.533,-41.5999 h -156 q -86.666,0 -159.466,-41.5999 -71.067,-43.3333 -114.4,-116.13313 -41.6,-72.79986 -41.6,-159.46636 0,-86.6665 41.6,-157.73302 43.333,-72.79986 114.4,-114.39978 72.8,-43.33325 159.466,-43.33325 h 78 q 124.8,0 201.066,24.26662 78,22.53329 140.4,74.53319 z"
       
       transform="matrix(1.3118104,0,0,1.3125278,10413.892,161.6074)"
       aria-label="6x Labs" /></g></svg>
