<?xml version="1.0" encoding="UTF-8" standalone="no"?>
<!-- Created with Inkscape (http://www.inkscape.org/) -->

<svg
   width="100%"
   height="100%"
   viewBox="0 0 11460.194 2047.5393"
   version="1.1"
   id="svg1"
   xml:space="preserve"
   xmlns="http://www.w3.org/2000/svg"
   xmlns:svg="http://www.w3.org/2000/svg"><defs
     id="defs1"><rect
       x="5074.9453"
       y="0.47338909"
       width="8577.7588"
       height="2047.5393"
       id="rect4" /></defs><g
     id="layer1"
     transform="translate(-2300.6544,-196.08785)"><path
       id="path3-8"
       style="display:inline;fill:currentColor;fill-opacity:1;fill-rule:evenodd;stroke-width:1.19487"
       d="M 1004.1575,0.1920263 C 746.36623,5.1825245 499.90397,107.27053 314.08921,286.02767 c -7.89788,7.5979 -20.46364,20.16366 -28.06154,28.06154 C 107.27053,499.90397 5.1825245,746.36623 0.19202631,1004.1575 c -0.21211647,10.9572 -0.21211647,28.7278 -10e-9,39.685 4.9904982,257.7913 107.0785037,504.2535 285.8356437,690.0683 7.5979,7.8979 20.16366,20.4636 28.06154,28.0615 185.81476,178.7572 432.27702,280.8452 690.06829,285.8357 10.9572,0.2121 28.7278,0.2121 39.685,0 257.7913,-4.9905 504.2535,-107.0785 690.0683,-285.8357 7.8979,-7.5979 20.4636,-20.1636 28.0615,-28.0615 178.7572,-185.8148 280.8452,-432.277 285.8357,-690.0683 0.2121,-10.9572 0.2121,-28.7278 0,-39.685 -4.9905,-257.79127 -107.0785,-504.25353 -285.8357,-690.06829 -7.5979,-7.89788 -20.1636,-20.46364 -28.0615,-28.06154 C 1548.096,107.27053 1301.6338,5.1825245 1043.8425,0.19202631 c -10.9572,-0.21211647 -28.7278,-0.21211647 -39.685,-10e-9 z M 450.74603,798.07118 c 60.35528,5.56385 116.02838,35.1013 154.48256,81.96106 6.95008,8.46927 20.78662,15.8701 31.74602,15.8701 h 180.98242 c 10.9594,0 24.79594,-7.40083 31.74602,-15.8701 38.45418,-46.85976 94.12728,-76.39722 154.48255,-81.96106 10.9097,-1.0057 28.7191,-1.0057 39.6288,10e-6 60.3553,5.56384 116.0284,35.10129 154.4825,81.96105 6.9501,8.46927 20.7866,15.8701 31.7461,15.8701 h 181.543 c 10.9594,0 24.7959,-7.40083 31.746,-15.8701 38.4541,-46.85976 94.1272,-76.39721 154.4825,-81.96105 10.9097,-1.00571 28.7184,-1.04692 39.6336,-0.10201 109.4702,9.47661 196.6957,96.71976 206.1691,206.21162 0.9444,10.9152 0.9444,28.7232 0,39.6384 -9.4734,109.4919 -96.6989,196.735 -206.1691,206.2117 -10.9152,0.9449 -28.7239,0.9037 -39.6336,-0.1021 -60.3553,-5.5638 -116.0284,-35.1012 -154.4825,-81.961 -6.9501,-8.4693 -20.7866,-15.8701 -31.746,-15.8701 h -181.543 c -10.9595,0 -24.796,7.4008 -31.7461,15.8701 -38.4541,46.8598 -94.1272,76.3972 -154.4825,81.961 -10.9097,1.0058 -28.7191,1.0058 -39.6288,0 -60.35527,-5.5638 -116.02837,-35.1012 -154.48255,-81.961 -6.95008,-8.4693 -20.78662,-15.8701 -31.74602,-15.8701 H 636.97461 c -10.9594,0 -24.79594,7.4008 -31.74602,15.8701 -38.45418,46.8598 -94.12728,76.3972 -154.48256,81.961 -10.90966,1.0058 -28.71841,1.0469 -39.63358,0.1019 -109.4694,-9.4775 -196.69379,-96.7204 -206.16712,-206.2115 -0.9444,-10.9152 -0.9444,-28.7232 0,-39.6384 9.47335,-109.49113 96.69774,-196.73395 206.16712,-206.21145 10.91517,-0.945 28.72392,-0.90387 39.63358,0.10183 z"
       transform="translate(2300.6214,196.05491)" /><text
       xml:space="preserve"
       transform="matrix(1.3118104,0,0,1.3125278,-1591.692,161.6074)"
       id="text4"
       style="font-size:1733.33px;white-space:pre;shape-inside:url(#rect4);fill:#ffffff;fill-opacity:1"><tspan
         x="5074.9453"
         y="1586.2672"
         id="tspan2"><tspan
           dx="0 0 -0.00012207031 0 0 -0.00012207031 0.00012207031"
           style="font-family:'Arcticons Sans';-inkscape-font-specification:'Arcticons Sans';fill:currentColor"
           id="tspan1">6x Labs</tspan></tspan></text></g><style
     id="style1">
		.s0 { fill: #000000 } 
	</style></svg>
