<!-- Created with Inkscape (http://www.inkscape.org/) -->
<svg
  width="20"
  height="20"
  viewBox="0 0 2048 2048"
  version="1.1"
  fill="currentColor"
  preserveAspectRatio="xMidYMid meet"
  style="display:block"
   xml:space="preserve"
  xmlns="http://www.w3.org/2000/svg"><defs /><g><path
       d="M 1036.9618,0.08327667 C 660.55447,-4.7181675 306.33533,198.38389 122.66085,537.40876 61.069815,651.09349 20.895942,778.29055 6.3008047,905.82923 c -12.7618667,111.51987 -2.6220088,213.60837 0,236.52057 21.6350433,189.0556 97.9915753,371.8838 217.7844453,521.4761 50.96718,63.6457 114.58196,125.6903 179.37797,174.9451 163.69185,124.4296 358.7013,196.195 565.18921,208 9.91718,0.5671 32.86077,1.1138 50.98517,1.2135 304.1458,1.6816 595.5597,-133.6956 790.3685,-367.1721 140.7222,-168.6542 222.0375,-372.9673 236.7567,-594.8639 1.6496,-24.8673 1.6496,-98.85437 0,-123.72145 C 2040.6169,869.57571 2023.8399,783.674 1995.2179,698.31606 1875.8447,342.31564 1569.1307,79.058451 1199.2032,15.080755 1144.9575,5.699148 1090.7343,0.76919726 1036.9618,0.08327667 Z M 430.92881,797.11579 c 125.28253,-6.5e-4 226.84541,101.58024 226.8447,226.88511 7.1e-4,125.3048 -101.56217,226.8858 -226.8447,226.885 -125.28111,0 -226.84186,-101.5816 -226.84114,-226.885 -7.2e-4,-125.30345 101.56003,-226.88384 226.84114,-226.88511 z m 593.35009,0 c 125.2826,-6.5e-4 226.8454,101.58024 226.8447,226.88511 7e-4,125.3048 -101.5621,226.8858 -226.8447,226.885 -125.28254,8e-4 -226.84542,-101.5802 -226.84471,-226.885 -7.1e-4,-125.30487 101.56217,-226.88576 226.84471,-226.88511 z m 593.3501,0 c 125.2813,0.001 226.8419,101.58148 226.8411,226.88511 8e-4,125.3036 -101.5598,226.8838 -226.8411,226.885 -125.2827,8e-4 -226.8454,-101.58 -226.8447,-226.885 -7e-4,-125.30505 101.562,-226.88576 226.8447,-226.88511 z"
    style="display:inline;stroke-width:1.25079" /><path
      style="display:none;fill:currentColor"
       d="m 1900.1036,1654.9725 c -86.1174,-4.4308 -157.083,-21.9354 -228.6667,-56.4038 -79.1163,-38.0954 -145.8037,-91.2757 -201.6198,-160.7831 -15.6288,-19.4624 -37.277,-51.3078 -49.8513,-73.3334 -10.6664,-18.6836 -27.1027,-52.9045 -34.9018,-72.6666 -53.5683,-135.7357 -53.5639,-287.9722 0.012,-424.0001 7.7623,-19.7084 24.1946,-53.9326 34.8897,-72.6667 55.9463,-97.9974 142.0017,-179.5283 242.6942,-229.93399 63.4055,-31.74021 130.6586,-51.06492 202.4093,-58.16094 29.5368,-2.92114 80.2915,-2.91528 110.0685,0.0127 71.6024,7.04068 138.984,26.3981 202.4094,58.14824 22.4251,11.22579 39.1842,21.03769 62.5564,36.62449 61.9931,41.343 116.6808,96.0277 157.985,157.9762 17.3342,25.9981 27.7743,44.267 40.7645,71.3333 25.5405,53.2161 40.8708,102.7634 49.7548,160.8067 4.8547,31.7183 6.5012,53.9695 6.5012,87.8601 0,33.8905 -1.6465,56.1417 -6.5012,87.86 -8.884,58.0432 -24.2143,107.5906 -49.7548,160.8066 -25.4145,52.9535 -56.7604,98.8499 -98.3478,144.0001 -36.5013,39.6283 -87.1661,79.7432 -135.7351,107.471 -71.5758,40.8623 -153.9896,66.39 -236,73.1011 -18.6481,1.526 -56.1765,2.5907 -68.6666,1.9481 z m -278.6668,-451.098 c 5.5,-1.588 15.4,-5.5041 22.0001,-8.7024 33.0964,-16.0387 56.9959,-44.8543 67.6177,-81.5265 2.644,-9.1286 3.049,-13.5371 3.049,-33.1934 0,-19.6562 -0.405,-24.0647 -3.049,-33.1933 -10.6209,-36.6695 -34.5088,-65.4728 -67.6177,-81.5317 -6.6001,-3.2012 -16.8001,-7.1977 -22.6667,-8.8811 -9.2483,-2.6536 -13.6809,-3.0606 -33.3334,-3.0606 -19.6525,0 -24.0851,0.407 -33.3333,3.0606 -5.8667,1.6834 -16.0667,5.6799 -22.6667,8.8811 -33.1088,16.0589 -56.9967,44.8622 -67.6177,81.5317 -2.644,9.1286 -3.0489,13.5371 -3.0489,33.1933 0,19.6563 0.4049,24.0648 3.0489,33.1934 11.8198,40.8082 40.3847,72.0998 79.1162,86.6684 16.2921,6.1282 25.4103,7.4487 47.8349,6.9277 16.1603,-0.3754 22.8471,-1.1096 30.6666,-3.3672 z m 333.3334,0 c 5.5,-1.588 15.4,-5.5041 22,-8.7024 33.0964,-16.0387 56.9959,-44.8543 67.6177,-81.5265 2.6441,-9.1286 3.049,-13.5371 3.049,-33.1934 0,-19.6562 -0.4049,-24.0647 -3.049,-33.1933 -10.6209,-36.6695 -34.5088,-65.4728 -67.6177,-81.5317 -6.6,-3.2012 -16.8,-7.1977 -22.6666,-8.8811 -9.2483,-2.6536 -13.6809,-3.0606 -33.3334,-3.0606 -19.6524,0 -24.0851,0.407 -33.3333,3.0606 -5.8667,1.6834 -16.0667,5.6799 -22.6667,8.8811 -33.1088,16.0589 -56.9967,44.8622 -67.6176,81.5317 -2.6441,9.1286 -3.049,13.5371 -3.049,33.1933 0,19.6563 0.4049,24.0648 3.049,33.1934 11.8197,40.8082 40.3846,72.0998 79.1161,86.6684 16.2921,6.1282 25.4103,7.4487 47.8349,6.9277 16.1603,-0.3754 22.8471,-1.1096 30.6666,-3.3672 z m 333.3334,0 c 5.5,-1.588 15.4,-5.5041 22,-8.7024 33.0964,-16.0387 56.9959,-44.8543 67.6177,-81.5265 2.644,-9.1286 3.0489,-13.5371 3.0489,-33.1934 0,-19.6562 -0.4049,-24.0647 -3.0489,-33.1933 -10.621,-36.6695 -34.5089,-65.4728 -67.6177,-81.5317 -6.6,-3.2012 -16.8,-7.1977 -22.6667,-8.8811 -9.2482,-2.6536 -13.6808,-3.0606 -33.3333,-3.0606 -19.6525,0 -24.0851,0.407 -33.3334,3.0606 -5.8666,1.6834 -16.0666,5.6799 -22.6666,8.8811 -33.1089,16.0589 -56.9968,44.8622 -67.6177,81.5317 -2.644,9.1286 -3.049,13.5371 -3.049,33.1933 0,19.6563 0.405,24.0648 3.049,33.1934 11.8197,40.8082 40.3846,72.0998 79.1161,86.6684 16.2921,6.1282 25.4104,7.4487 47.8349,6.9277 16.1603,-0.3754 22.8472,-1.1096 30.6667,-3.3672 z"
       id="path1" /></g></svg>
